<svg width="72" height="72" viewBox="0 0 72 72" fill="none" xmlns="http://www.w3.org/2000/svg">
<rect width="72" height="72" rx="36" fill="white"/>
<path d="M50 20.1488V29.926C50 32.5596 48.9106 34.9536 47.1553 36.6886C45.3999 38.4235 42.9777 39.5 40.3126 39.5H31.6874C29.0227 39.5 26.6002 38.4234 24.8447 36.6886C23.0892 34.9538 22 32.5599 22 29.926V20.1488C22 19.7905 22.294 19.5 22.6565 19.5H49.3429C49.7054 19.5 49.9994 19.7905 49.9994 20.1488H50ZM23.3135 22.9958H48.6878V20.7976H23.3135V22.9958ZM48.6878 24.2928H23.3135V29.9269C23.3135 32.2022 24.2556 34.2717 25.7734 35.7718C27.2914 37.2721 29.3854 38.2039 31.6875 38.2039H40.3128C42.615 38.2039 44.709 37.2721 46.2269 35.7718C47.7449 34.2716 48.6868 32.2021 48.6868 29.9269V24.2928H48.6878Z" fill="black"/>
<path d="M43.0099 49.3184L43.0102 49.3187C43.1091 49.4246 43.161 49.5678 43.1514 49.7145M43.0099 49.3184L43.1479 46.1957V46.1956L43.1477 46.1706C43.1477 45.2263 43.9111 44.4595 44.8475 44.4595C45.7838 44.4595 46.5467 45.2267 46.5467 46.1706C46.5467 46.7234 46.2773 47.246 45.8282 47.5667L45.8281 47.5667C45.689 47.6663 45.6061 47.8277 45.6061 47.9993C45.6061 48.1704 45.6889 48.3323 45.8281 48.4319L45.8283 48.4321C46.2778 48.7522 46.5467 49.2736 46.5467 49.8281C46.5467 50.7719 45.7839 51.5386 44.8475 51.5386C43.9111 51.5386 43.1477 50.7719 43.1477 49.8281C43.1477 49.7914 43.1492 49.753 43.1514 49.7145M43.0099 49.3184C42.9102 49.2125 42.7707 49.1503 42.6239 49.1503H29.3755C29.2309 49.1503 29.0901 49.2107 28.9909 49.3154L28.9904 49.3159C28.8905 49.4227 28.8396 49.5674 28.8492 49.7138L28.8492 49.7141M43.0099 49.3184L28.8492 49.7141M43.1514 49.7145C43.1514 49.7146 43.1514 49.7148 43.1514 49.7149L43.0516 49.7083M43.1514 49.7145C43.1514 49.7143 43.1514 49.7142 43.1514 49.714L43.0516 49.7083M43.0516 49.7083C43.0595 49.5892 43.0174 49.4728 42.9371 49.387C42.8557 49.3006 42.7424 49.2503 42.6239 49.2503H29.3755C29.2582 49.2503 29.1437 49.2995 29.0635 49.3842C28.9827 49.4706 28.9411 49.588 28.949 49.7072L43.0516 49.7083ZM28.8492 49.7141C28.8518 49.7513 28.8524 49.7888 28.8524 49.8269C28.8524 50.7707 28.0895 51.5375 27.1531 51.5375C26.2167 51.5375 25.4539 50.7708 25.4539 49.8269C25.4539 49.2729 25.7223 48.7515 26.1713 48.4309C26.3113 48.3311 26.3934 48.1696 26.3934 47.9982C26.3934 47.8262 26.3107 47.6647 26.1713 47.5655L28.8492 49.7141ZM42.9999 46.6067C43.0981 46.5038 43.152 46.3656 43.1482 46.2229L26.1712 47.5654C25.7223 47.2454 25.4539 46.7224 25.4539 46.1695C25.4539 45.2251 26.2168 44.4583 27.1531 44.4583C28.0894 44.4583 28.8524 45.2256 28.8524 46.1695V46.2215C28.848 46.3651 28.902 46.5028 29.0001 46.6056L29.0001 46.6056L29.0013 46.6068C29.1005 46.7074 29.2358 46.767 29.3789 46.767C29.3789 46.767 29.3789 46.767 29.3789 46.767L42.62 46.7682C42.7635 46.7682 42.8992 46.7102 42.9992 46.6075L42.9999 46.6067ZM29.8822 50.21H42.1178L47.5 49.8292H47.6C47.6 49.8292 47.6 49.8292 47.6 49.8291C47.6 49.1504 47.3505 48.5006 46.9135 48C47.3505 47.4994 47.6 46.8501 47.6 46.1718C47.6 44.6438 46.3655 43.4 44.8459 43.4C43.4826 43.4 42.3492 44.4002 42.1299 45.7082H29.8695C29.6496 44.4002 28.5162 43.4 27.1535 43.4C25.6339 43.4 24.4 44.6438 24.4 46.1718C24.4 46.8495 24.6479 47.4992 25.0848 48C24.6479 48.5008 24.4 49.1511 24.4 49.8292C24.4 51.3562 25.6339 52.6 27.1535 52.6C28.5446 52.6 29.6963 51.5579 29.8822 50.21Z" fill="black" stroke="black" stroke-width="0.2"/>
<path d="M31.9 36.0769C31.9 36.3653 32.1328 36.6 32.421 36.6C32.5594 36.6 32.692 36.5448 32.7897 36.4466C32.8873 36.3485 32.9421 36.2155 32.9421 36.0769C32.9421 35.7482 33.0081 35.5125 33.1137 35.3113C33.221 35.1069 33.3707 34.9342 33.5489 34.7296C33.9478 34.2736 34.4157 33.7355 34.4157 32.6923C34.4157 31.652 33.9482 31.1143 33.5526 30.6593L33.5493 30.6554L33.5491 30.6553L33.5468 30.6526C33.3705 30.4488 33.2217 30.2768 33.1145 30.0732C33.0086 29.8719 32.9421 29.6363 32.9421 29.3077C32.9421 28.9789 33.0081 28.7433 33.1137 28.542C33.221 28.3376 33.3707 28.1649 33.549 27.9603C33.9479 27.5043 34.4157 26.9663 34.4157 25.9231C34.4157 25.6347 34.1829 25.4 33.8947 25.4C33.6065 25.4 33.3736 25.6347 33.3736 25.9231C33.3736 26.2518 33.3076 26.4875 33.202 26.6887C33.0947 26.8931 32.945 27.0658 32.7667 27.2705C32.3678 27.7265 31.9 28.2645 31.9 29.3077C31.9 30.348 32.3676 30.8857 32.7631 31.3407L32.7665 31.3446L32.7666 31.3447L32.7689 31.3474C32.9452 31.5512 33.094 31.7232 33.2012 31.9268C33.3071 32.1281 33.3736 32.3637 33.3736 32.6923C33.3736 33.0211 33.3076 33.2567 33.202 33.458C33.0947 33.6623 32.9451 33.835 32.7668 34.0396C32.3679 34.4957 31.9 35.0337 31.9 36.0769ZM37.5843 36.0769C37.5843 36.3653 37.8171 36.6 38.1053 36.6C38.2436 36.6 38.3763 36.5448 38.4739 36.4466C38.5716 36.3485 38.6264 36.2155 38.6264 36.0769C38.6264 35.7482 38.6924 35.5125 38.798 35.3113C38.9053 35.1069 39.0549 34.9342 39.2332 34.7296C39.6321 34.2736 40.1 33.7355 40.1 32.6923C40.1 31.652 39.6324 31.1143 39.2369 30.6593L39.2335 30.6554L39.2334 30.6553L39.2311 30.6526C39.0548 30.4488 38.906 30.2768 38.7988 30.0732C38.6929 29.8719 38.6264 29.6363 38.6264 29.3077C38.6264 28.9789 38.6924 28.7433 38.798 28.542C38.9053 28.3376 39.055 28.1649 39.2332 27.9603C39.6321 27.5043 40.1 26.9663 40.1 25.9231C40.1 25.6347 39.8672 25.4 39.579 25.4C39.2908 25.4 39.0579 25.6347 39.0579 25.9231C39.0579 26.2518 38.9919 26.4875 38.8862 26.6887C38.779 26.8931 38.6293 27.0658 38.451 27.2705C38.0521 27.7265 37.5843 28.2645 37.5843 29.3077C37.5843 30.348 38.0518 30.8857 38.4474 31.3407L38.4507 31.3446L38.4509 31.3447L38.4532 31.3474C38.6295 31.5512 38.7783 31.7232 38.8855 31.9268C38.9914 32.1281 39.0579 32.3637 39.0579 32.6923C39.0579 33.0211 38.9919 33.2567 38.8862 33.458C38.779 33.6623 38.6293 33.835 38.4511 34.0396C38.0522 34.4957 37.5843 35.0337 37.5843 36.0769Z" fill="black" stroke="black" stroke-width="0.2"/>
</svg>
