<svg width="72" height="72" viewBox="0 0 72 72" fill="none" xmlns="http://www.w3.org/2000/svg">
<rect width="72" height="72" rx="36" fill="white"/>
<path d="M51.8529 32.6406H20.1471C19.7897 32.6406 19.5 32.3398 19.5 31.9688V24.5781C19.5 21.9053 20.5226 19.3417 22.3427 17.4517C24.1628 15.5618 26.6318 14.5 29.2059 14.5H42.7941C45.3682 14.5 47.8371 15.5618 49.6573 17.4517C51.4774 19.3416 52.4999 21.9053 52.4999 24.5781V31.9688C52.4999 32.1469 52.4318 32.3179 52.3105 32.4439C52.1891 32.5698 52.0245 32.6406 51.8529 32.6406ZM20.7941 31.2969H51.2058V24.5781C51.2058 22.2617 50.3196 20.0399 48.7421 18.4019C47.1646 16.7639 45.025 15.8438 42.7941 15.8438H29.2059C26.975 15.8438 24.8353 16.7639 23.2578 18.4019C21.6803 20.0399 20.7941 22.2617 20.7941 24.5781V31.2969Z" fill="black"/>
<path d="M50.5588 57.5H21.4412C20.9264 57.5 20.4324 57.2876 20.0685 56.9097C19.7046 56.5318 19.5001 56.0188 19.5001 55.4844V31.9688C19.5001 31.5978 19.7898 31.2969 20.1471 31.2969H51.8529C52.0245 31.2969 52.1892 31.3677 52.3105 31.4937C52.4318 31.6197 52.5 31.7906 52.5 31.9688V55.4844C52.5 56.0189 52.2955 56.5318 51.9315 56.9097C51.5675 57.2876 51.0735 57.5 50.5588 57.5ZM20.7941 32.6406V55.4844C20.7941 55.6625 20.8623 55.8335 20.9836 55.9595C21.105 56.0855 21.2696 56.1562 21.4412 56.1562H50.5588C50.7304 56.1562 50.895 56.0855 51.0164 55.9595C51.1377 55.8335 51.2058 55.6625 51.2058 55.4844V32.6406H20.7941Z" fill="black"/>
<path d="M51.8529 28.6094H20.1471C19.7897 28.6094 19.5 28.3085 19.5 27.9375C19.5 27.5665 19.7897 27.2656 20.1471 27.2656H51.8529C52.2102 27.2656 52.4999 27.5665 52.4999 27.9375C52.4999 28.3085 52.2102 28.6094 51.8529 28.6094Z" fill="black"/>
<path d="M30.4992 52.4613C30.1419 52.4613 29.8522 52.1605 29.8522 51.7894C29.8522 50.1938 30.5379 49.3773 31.1463 48.6587C31.6899 48.0138 32.1169 47.5063 32.1169 46.4144C32.1169 45.3226 31.6865 44.8155 31.1463 44.1702C30.5414 43.4513 29.8522 42.6351 29.8522 41.0394C29.8522 39.4438 30.5379 38.6273 31.1463 37.9087C31.6899 37.2638 32.1169 36.7563 32.1169 35.6644C32.1169 35.2934 32.4066 34.9926 32.7639 34.9926C33.1213 34.9926 33.411 35.2934 33.411 35.6644C33.411 37.2601 32.7252 38.0766 32.1169 38.7952C31.5732 39.4401 31.1463 39.9476 31.1463 41.0394C31.1463 42.1313 31.5767 42.6384 32.1169 43.2837C32.7218 44.0026 33.411 44.8188 33.411 46.4144C33.411 48.0101 32.7252 48.8266 32.1169 49.5452C31.5732 50.1901 31.1463 50.6976 31.1463 51.7894C31.1463 51.9676 31.0781 52.1386 30.9568 52.2646C30.8355 52.3905 30.6708 52.4613 30.4992 52.4613Z" fill="black"/>
<path d="M39.2349 52.4613C38.8776 52.4613 38.5878 52.1605 38.5878 51.7894C38.5878 50.1938 39.2736 49.3773 39.882 48.6587C40.4256 48.0138 40.8525 47.5063 40.8525 46.4144C40.8525 45.3226 40.4221 44.8155 39.882 44.1702C39.2771 43.4513 38.5878 42.6351 38.5878 41.0394C38.5878 39.4438 39.2736 38.6273 39.882 37.9087C40.4256 37.2638 40.8525 36.7563 40.8525 35.6644C40.8525 35.2934 41.1423 34.9926 41.4996 34.9926C41.8569 34.9926 42.1467 35.2934 42.1467 35.6644C42.1467 37.2601 41.4609 38.0766 40.8525 38.7952C40.3089 39.4401 39.882 39.9476 39.882 41.0394C39.882 42.1313 40.3124 42.6384 40.8525 43.2837C41.4574 44.0026 42.1467 44.8188 42.1467 46.4144C42.1467 48.0101 41.4609 48.8266 40.8525 49.5452C40.3089 50.1901 39.882 50.6976 39.882 51.7894C39.882 51.9676 39.8138 52.1386 39.6925 52.2646C39.5711 52.3905 39.4065 52.4613 39.2349 52.4613Z" fill="black"/>
</svg>
