<svg width="72" height="72" viewBox="0 0 72 72" fill="none" xmlns="http://www.w3.org/2000/svg">
<rect width="72" height="72" rx="36" fill="white"/>
<mask id="path-2-outside-1_344_188" maskUnits="userSpaceOnUse" x="10" y="25.5" width="25" height="21" fill="black">
<rect fill="white" x="10" y="25.5" width="25" height="21"/>
<path d="M31.399 28.3029L28.1235 26.7778C28.1358 26.7213 28.1004 26.6647 28.041 26.6505C27.6321 26.5507 27.2096 26.5002 26.7855 26.5002L18.3671 26.5C17.8913 26.5 17.4192 26.5634 16.9641 26.6888C16.921 26.7007 16.8918 26.7352 16.8845 26.7745L13.601 28.3031C11.959 29.0677 10.9394 30.684 11.0028 32.4213L11.0233 32.9812C11.0762 34.4202 11.483 35.8517 12.2002 37.1206L13.1457 38.7936C13.1634 38.8249 13.196 38.8461 13.2331 38.8502C13.2374 38.8507 13.242 38.8509 13.2464 38.8509C13.2792 38.8509 13.3103 38.8375 13.332 38.8139C13.3484 38.7965 14.1796 37.8851 14.977 36.4595L16.6321 41.2594V42.6328C16.6321 44.1871 17.9908 45.5 19.5994 45.5C20.085 45.5 20.5455 45.119 20.9575 44.6298H24.36C24.7426 45.1156 25.1804 45.5 25.6631 45.5C27.2386 45.5 28.5209 44.2139 28.5209 42.6328L28.5205 41.2594L30.173 36.7207C30.9214 37.9952 31.653 38.7971 31.6683 38.8134C31.6903 38.837 31.7215 38.8503 31.7539 38.8503C31.7582 38.8503 31.7626 38.8502 31.7673 38.8497C31.8044 38.8456 31.837 38.8244 31.8546 38.7931L32.8001 37.1201C33.5173 35.8511 33.9241 34.4198 33.9767 32.9807L33.9972 32.4208C34.0608 30.684 33.041 29.0674 31.399 28.3031L31.399 28.3029ZM13.2665 38.5484L12.4012 37.0172C11.7006 35.7776 11.3033 34.3791 11.2518 32.9733L11.2313 32.4134C11.1707 30.7616 12.1402 29.2247 13.7015 28.498L16.6601 27.1204C16.4207 27.6164 16.138 28.7403 16.1999 31.2676C16.286 34.814 13.815 37.9074 13.2665 38.5482L13.2665 38.5484ZM21.1314 44.4121C21.382 44.0876 21.6123 43.7359 21.8156 43.4248C21.9245 43.2582 22.0215 43.1099 22.1074 42.9877C22.2569 43.0638 22.4258 43.1064 22.6038 43.1064C22.8354 43.1064 23.0518 43.0362 23.229 42.911C23.3394 43.0623 23.4672 43.2714 23.6128 43.5103C23.7861 43.7944 23.9816 44.1136 24.1963 44.4122L21.1314 44.4121ZM23.3162 42.4983C23.2707 42.5734 23.213 42.6378 23.1481 42.6927H22.1044C22.0924 42.6927 22.0812 42.6971 22.0698 42.7005C22.0008 42.6439 21.94 42.5768 21.8922 42.4981L20.6472 40.4481C20.4987 40.2034 20.4986 39.9114 20.6472 39.6665C20.7957 39.4218 21.0617 39.2759 21.3592 39.2759H23.8494C24.1466 39.2759 24.4127 39.422 24.5612 39.6665C24.7099 39.9109 24.7099 40.2032 24.5614 40.4481L23.3162 42.4983ZM28.2919 42.6325C28.2919 44.0937 27.1124 45.2823 25.663 45.2823C24.9589 45.2823 24.2952 44.1949 23.811 43.4012C23.6538 43.144 23.518 42.9222 23.3967 42.7608C23.4397 42.7132 23.48 42.6629 23.514 42.6071L24.759 40.5571C24.9489 40.2442 24.9489 39.8711 24.759 39.5583C24.5692 39.2454 24.2291 39.0588 23.8491 39.0588H21.359C20.9789 39.0588 20.6388 39.2456 20.449 39.5583C20.2591 39.8711 20.2591 40.2442 20.4491 40.5571L21.6941 42.6071C21.7547 42.7068 21.8316 42.792 21.9193 42.8639C21.8307 42.9894 21.7314 43.1411 21.6212 43.3102C21.1084 44.0954 20.3338 45.2825 19.5992 45.2825C18.1146 45.2825 16.8606 44.0689 16.8606 42.6327V41.2416C16.8606 40.6579 17.1213 40.0358 17.5755 39.5356L19.6228 37.3201C20.1362 36.7543 21.318 36.4028 22.7059 36.4028C24.0941 36.4026 25.2758 36.7541 25.7879 37.3178L27.7116 39.5557C27.7121 39.5564 27.7126 39.5573 27.7134 39.5579C28.0972 39.9809 28.292 40.5473 28.292 41.2416V42.6326L28.2919 42.6325ZM28.4805 40.7052C28.4008 40.1959 28.2024 39.7643 27.8876 39.4171L25.963 37.1776C25.4068 36.5653 24.159 36.1852 22.7061 36.1852H22.7056C21.2529 36.1852 20.0054 36.5656 19.4503 37.1769L17.403 39.3925C17.0429 39.7892 16.7969 40.2586 16.691 40.7318L15.1244 36.1882C15.8339 34.852 16.4735 33.1198 16.4282 31.2625C16.3355 27.4517 17.0416 26.9468 17.0643 26.9319C17.0885 26.9192 17.1049 26.8991 17.1145 26.8763C17.5224 26.7721 17.9431 26.717 18.367 26.717H26.785C27.1534 26.717 27.5201 26.7591 27.8772 26.838C27.8777 26.8777 27.9 26.9155 27.9401 26.9343C27.9497 26.9392 28.6658 27.3883 28.5715 31.2625C28.5232 33.2499 29.2588 35.0935 30.0249 36.4624L28.4805 40.7052ZM33.7482 32.9734C33.6968 34.3791 33.2995 35.7776 32.5989 37.0175L31.7336 38.5487C31.4913 38.2653 30.8742 37.5036 30.2679 36.4359C30.2667 36.4039 30.2497 36.3749 30.223 36.3553C29.4725 35.0134 28.7536 33.2091 28.8008 31.2677C28.8623 28.7408 28.5799 27.6167 28.3405 27.1205L31.2988 28.4981C32.86 29.2248 33.8298 30.7617 33.769 32.4135L33.7482 32.9734Z"/>
<path d="M18.887 32.8977C18.2524 32.8977 17.7362 33.3884 17.7362 33.9918C17.7362 34.5951 18.2524 35.0859 18.887 35.0859C19.5217 35.0859 20.0379 34.5951 20.0379 33.9918C20.0377 33.3885 19.5215 32.8977 18.887 32.8977ZM18.887 34.8682C18.3788 34.8682 17.9651 34.4749 17.9651 33.9918C17.9651 33.5086 18.3788 33.1153 18.887 33.1153C19.3953 33.1153 19.809 33.5086 19.809 33.9918C19.809 34.4749 19.3956 34.8682 18.887 34.8682Z"/>
<path d="M26.113 32.8977C25.4784 32.8977 24.9621 33.3884 24.9621 33.9918C24.9621 34.5951 25.4783 35.0859 26.113 35.0859C26.7476 35.0859 27.2639 34.5951 27.2639 33.9918C27.2639 33.3884 26.7476 32.8977 26.113 32.8977ZM26.113 34.8682C25.6047 34.8682 25.191 34.4749 25.191 33.9918C25.191 33.5086 25.6048 33.1153 26.113 33.1153C26.6212 33.1153 27.035 33.5086 27.035 33.9918C27.0351 34.4749 26.6216 34.8682 26.113 34.8682Z"/>
</mask>
<path d="M31.399 28.3029L28.1235 26.7778C28.1358 26.7213 28.1004 26.6647 28.041 26.6505C27.6321 26.5507 27.2096 26.5002 26.7855 26.5002L18.3671 26.5C17.8913 26.5 17.4192 26.5634 16.9641 26.6888C16.921 26.7007 16.8918 26.7352 16.8845 26.7745L13.601 28.3031C11.959 29.0677 10.9394 30.684 11.0028 32.4213L11.0233 32.9812C11.0762 34.4202 11.483 35.8517 12.2002 37.1206L13.1457 38.7936C13.1634 38.8249 13.196 38.8461 13.2331 38.8502C13.2374 38.8507 13.242 38.8509 13.2464 38.8509C13.2792 38.8509 13.3103 38.8375 13.332 38.8139C13.3484 38.7965 14.1796 37.8851 14.977 36.4595L16.6321 41.2594V42.6328C16.6321 44.1871 17.9908 45.5 19.5994 45.5C20.085 45.5 20.5455 45.119 20.9575 44.6298H24.36C24.7426 45.1156 25.1804 45.5 25.6631 45.5C27.2386 45.5 28.5209 44.2139 28.5209 42.6328L28.5205 41.2594L30.173 36.7207C30.9214 37.9952 31.653 38.7971 31.6683 38.8134C31.6903 38.837 31.7215 38.8503 31.7539 38.8503C31.7582 38.8503 31.7626 38.8502 31.7673 38.8497C31.8044 38.8456 31.837 38.8244 31.8546 38.7931L32.8001 37.1201C33.5173 35.8511 33.9241 34.4198 33.9767 32.9807L33.9972 32.4208C34.0608 30.684 33.041 29.0674 31.399 28.3031L31.399 28.3029ZM13.2665 38.5484L12.4012 37.0172C11.7006 35.7776 11.3033 34.3791 11.2518 32.9733L11.2313 32.4134C11.1707 30.7616 12.1402 29.2247 13.7015 28.498L16.6601 27.1204C16.4207 27.6164 16.138 28.7403 16.1999 31.2676C16.286 34.814 13.815 37.9074 13.2665 38.5482L13.2665 38.5484ZM21.1314 44.4121C21.382 44.0876 21.6123 43.7359 21.8156 43.4248C21.9245 43.2582 22.0215 43.1099 22.1074 42.9877C22.2569 43.0638 22.4258 43.1064 22.6038 43.1064C22.8354 43.1064 23.0518 43.0362 23.229 42.911C23.3394 43.0623 23.4672 43.2714 23.6128 43.5103C23.7861 43.7944 23.9816 44.1136 24.1963 44.4122L21.1314 44.4121ZM23.3162 42.4983C23.2707 42.5734 23.213 42.6378 23.1481 42.6927H22.1044C22.0924 42.6927 22.0812 42.6971 22.0698 42.7005C22.0008 42.6439 21.94 42.5768 21.8922 42.4981L20.6472 40.4481C20.4987 40.2034 20.4986 39.9114 20.6472 39.6665C20.7957 39.4218 21.0617 39.2759 21.3592 39.2759H23.8494C24.1466 39.2759 24.4127 39.422 24.5612 39.6665C24.7099 39.9109 24.7099 40.2032 24.5614 40.4481L23.3162 42.4983ZM28.2919 42.6325C28.2919 44.0937 27.1124 45.2823 25.663 45.2823C24.9589 45.2823 24.2952 44.1949 23.811 43.4012C23.6538 43.144 23.518 42.9222 23.3967 42.7608C23.4397 42.7132 23.48 42.6629 23.514 42.6071L24.759 40.5571C24.9489 40.2442 24.9489 39.8711 24.759 39.5583C24.5692 39.2454 24.2291 39.0588 23.8491 39.0588H21.359C20.9789 39.0588 20.6388 39.2456 20.449 39.5583C20.2591 39.8711 20.2591 40.2442 20.4491 40.5571L21.6941 42.6071C21.7547 42.7068 21.8316 42.792 21.9193 42.8639C21.8307 42.9894 21.7314 43.1411 21.6212 43.3102C21.1084 44.0954 20.3338 45.2825 19.5992 45.2825C18.1146 45.2825 16.8606 44.0689 16.8606 42.6327V41.2416C16.8606 40.6579 17.1213 40.0358 17.5755 39.5356L19.6228 37.3201C20.1362 36.7543 21.318 36.4028 22.7059 36.4028C24.0941 36.4026 25.2758 36.7541 25.7879 37.3178L27.7116 39.5557C27.7121 39.5564 27.7126 39.5573 27.7134 39.5579C28.0972 39.9809 28.292 40.5473 28.292 41.2416V42.6326L28.2919 42.6325ZM28.4805 40.7052C28.4008 40.1959 28.2024 39.7643 27.8876 39.4171L25.963 37.1776C25.4068 36.5653 24.159 36.1852 22.7061 36.1852H22.7056C21.2529 36.1852 20.0054 36.5656 19.4503 37.1769L17.403 39.3925C17.0429 39.7892 16.7969 40.2586 16.691 40.7318L15.1244 36.1882C15.8339 34.852 16.4735 33.1198 16.4282 31.2625C16.3355 27.4517 17.0416 26.9468 17.0643 26.9319C17.0885 26.9192 17.1049 26.8991 17.1145 26.8763C17.5224 26.7721 17.9431 26.717 18.367 26.717H26.785C27.1534 26.717 27.5201 26.7591 27.8772 26.838C27.8777 26.8777 27.9 26.9155 27.9401 26.9343C27.9497 26.9392 28.6658 27.3883 28.5715 31.2625C28.5232 33.2499 29.2588 35.0935 30.0249 36.4624L28.4805 40.7052ZM33.7482 32.9734C33.6968 34.3791 33.2995 35.7776 32.5989 37.0175L31.7336 38.5487C31.4913 38.2653 30.8742 37.5036 30.2679 36.4359C30.2667 36.4039 30.2497 36.3749 30.223 36.3553C29.4725 35.0134 28.7536 33.2091 28.8008 31.2677C28.8623 28.7408 28.5799 27.6167 28.3405 27.1205L31.2988 28.4981C32.86 29.2248 33.8298 30.7617 33.769 32.4135L33.7482 32.9734Z" fill="black"/>
<path d="M18.887 32.8977C18.2524 32.8977 17.7362 33.3884 17.7362 33.9918C17.7362 34.5951 18.2524 35.0859 18.887 35.0859C19.5217 35.0859 20.0379 34.5951 20.0379 33.9918C20.0377 33.3885 19.5215 32.8977 18.887 32.8977ZM18.887 34.8682C18.3788 34.8682 17.9651 34.4749 17.9651 33.9918C17.9651 33.5086 18.3788 33.1153 18.887 33.1153C19.3953 33.1153 19.809 33.5086 19.809 33.9918C19.809 34.4749 19.3956 34.8682 18.887 34.8682Z" fill="black"/>
<path d="M26.113 32.8977C25.4784 32.8977 24.9621 33.3884 24.9621 33.9918C24.9621 34.5951 25.4783 35.0859 26.113 35.0859C26.7476 35.0859 27.2639 34.5951 27.2639 33.9918C27.2639 33.3884 26.7476 32.8977 26.113 32.8977ZM26.113 34.8682C25.6047 34.8682 25.191 34.4749 25.191 33.9918C25.191 33.5086 25.6048 33.1153 26.113 33.1153C26.6212 33.1153 27.035 33.5086 27.035 33.9918C27.0351 34.4749 26.6216 34.8682 26.113 34.8682Z" fill="black"/>
<path d="M31.399 28.3029L28.1235 26.7778C28.1358 26.7213 28.1004 26.6647 28.041 26.6505C27.6321 26.5507 27.2096 26.5002 26.7855 26.5002L18.3671 26.5C17.8913 26.5 17.4192 26.5634 16.9641 26.6888C16.921 26.7007 16.8918 26.7352 16.8845 26.7745L13.601 28.3031C11.959 29.0677 10.9394 30.684 11.0028 32.4213L11.0233 32.9812C11.0762 34.4202 11.483 35.8517 12.2002 37.1206L13.1457 38.7936C13.1634 38.8249 13.196 38.8461 13.2331 38.8502C13.2374 38.8507 13.242 38.8509 13.2464 38.8509C13.2792 38.8509 13.3103 38.8375 13.332 38.8139C13.3484 38.7965 14.1796 37.8851 14.977 36.4595L16.6321 41.2594V42.6328C16.6321 44.1871 17.9908 45.5 19.5994 45.5C20.085 45.5 20.5455 45.119 20.9575 44.6298H24.36C24.7426 45.1156 25.1804 45.5 25.6631 45.5C27.2386 45.5 28.5209 44.2139 28.5209 42.6328L28.5205 41.2594L30.173 36.7207C30.9214 37.9952 31.653 38.7971 31.6683 38.8134C31.6903 38.837 31.7215 38.8503 31.7539 38.8503C31.7582 38.8503 31.7626 38.8502 31.7673 38.8497C31.8044 38.8456 31.837 38.8244 31.8546 38.7931L32.8001 37.1201C33.5173 35.8511 33.9241 34.4198 33.9767 32.9807L33.9972 32.4208C34.0608 30.684 33.041 29.0674 31.399 28.3031L31.399 28.3029ZM13.2665 38.5484L12.4012 37.0172C11.7006 35.7776 11.3033 34.3791 11.2518 32.9733L11.2313 32.4134C11.1707 30.7616 12.1402 29.2247 13.7015 28.498L16.6601 27.1204C16.4207 27.6164 16.138 28.7403 16.1999 31.2676C16.286 34.814 13.815 37.9074 13.2665 38.5482L13.2665 38.5484ZM21.1314 44.4121C21.382 44.0876 21.6123 43.7359 21.8156 43.4248C21.9245 43.2582 22.0215 43.1099 22.1074 42.9877C22.2569 43.0638 22.4258 43.1064 22.6038 43.1064C22.8354 43.1064 23.0518 43.0362 23.229 42.911C23.3394 43.0623 23.4672 43.2714 23.6128 43.5103C23.7861 43.7944 23.9816 44.1136 24.1963 44.4122L21.1314 44.4121ZM23.3162 42.4983C23.2707 42.5734 23.213 42.6378 23.1481 42.6927H22.1044C22.0924 42.6927 22.0812 42.6971 22.0698 42.7005C22.0008 42.6439 21.94 42.5768 21.8922 42.4981L20.6472 40.4481C20.4987 40.2034 20.4986 39.9114 20.6472 39.6665C20.7957 39.4218 21.0617 39.2759 21.3592 39.2759H23.8494C24.1466 39.2759 24.4127 39.422 24.5612 39.6665C24.7099 39.9109 24.7099 40.2032 24.5614 40.4481L23.3162 42.4983ZM28.2919 42.6325C28.2919 44.0937 27.1124 45.2823 25.663 45.2823C24.9589 45.2823 24.2952 44.1949 23.811 43.4012C23.6538 43.144 23.518 42.9222 23.3967 42.7608C23.4397 42.7132 23.48 42.6629 23.514 42.6071L24.759 40.5571C24.9489 40.2442 24.9489 39.8711 24.759 39.5583C24.5692 39.2454 24.2291 39.0588 23.8491 39.0588H21.359C20.9789 39.0588 20.6388 39.2456 20.449 39.5583C20.2591 39.8711 20.2591 40.2442 20.4491 40.5571L21.6941 42.6071C21.7547 42.7068 21.8316 42.792 21.9193 42.8639C21.8307 42.9894 21.7314 43.1411 21.6212 43.3102C21.1084 44.0954 20.3338 45.2825 19.5992 45.2825C18.1146 45.2825 16.8606 44.0689 16.8606 42.6327V41.2416C16.8606 40.6579 17.1213 40.0358 17.5755 39.5356L19.6228 37.3201C20.1362 36.7543 21.318 36.4028 22.7059 36.4028C24.0941 36.4026 25.2758 36.7541 25.7879 37.3178L27.7116 39.5557C27.7121 39.5564 27.7126 39.5573 27.7134 39.5579C28.0972 39.9809 28.292 40.5473 28.292 41.2416V42.6326L28.2919 42.6325ZM28.4805 40.7052C28.4008 40.1959 28.2024 39.7643 27.8876 39.4171L25.963 37.1776C25.4068 36.5653 24.159 36.1852 22.7061 36.1852H22.7056C21.2529 36.1852 20.0054 36.5656 19.4503 37.1769L17.403 39.3925C17.0429 39.7892 16.7969 40.2586 16.691 40.7318L15.1244 36.1882C15.8339 34.852 16.4735 33.1198 16.4282 31.2625C16.3355 27.4517 17.0416 26.9468 17.0643 26.9319C17.0885 26.9192 17.1049 26.8991 17.1145 26.8763C17.5224 26.7721 17.9431 26.717 18.367 26.717H26.785C27.1534 26.717 27.5201 26.7591 27.8772 26.838C27.8777 26.8777 27.9 26.9155 27.9401 26.9343C27.9497 26.9392 28.6658 27.3883 28.5715 31.2625C28.5232 33.2499 29.2588 35.0935 30.0249 36.4624L28.4805 40.7052ZM33.7482 32.9734C33.6968 34.3791 33.2995 35.7776 32.5989 37.0175L31.7336 38.5487C31.4913 38.2653 30.8742 37.5036 30.2679 36.4359C30.2667 36.4039 30.2497 36.3749 30.223 36.3553C29.4725 35.0134 28.7536 33.2091 28.8008 31.2677C28.8623 28.7408 28.5799 27.6167 28.3405 27.1205L31.2988 28.4981C32.86 29.2248 33.8298 30.7617 33.769 32.4135L33.7482 32.9734Z" stroke="black" mask="url(#path-2-outside-1_344_188)"/>
<path d="M18.887 32.8977C18.2524 32.8977 17.7362 33.3884 17.7362 33.9918C17.7362 34.5951 18.2524 35.0859 18.887 35.0859C19.5217 35.0859 20.0379 34.5951 20.0379 33.9918C20.0377 33.3885 19.5215 32.8977 18.887 32.8977ZM18.887 34.8682C18.3788 34.8682 17.9651 34.4749 17.9651 33.9918C17.9651 33.5086 18.3788 33.1153 18.887 33.1153C19.3953 33.1153 19.809 33.5086 19.809 33.9918C19.809 34.4749 19.3956 34.8682 18.887 34.8682Z" stroke="black" mask="url(#path-2-outside-1_344_188)"/>
<path d="M26.113 32.8977C25.4784 32.8977 24.9621 33.3884 24.9621 33.9918C24.9621 34.5951 25.4783 35.0859 26.113 35.0859C26.7476 35.0859 27.2639 34.5951 27.2639 33.9918C27.2639 33.3884 26.7476 32.8977 26.113 32.8977ZM26.113 34.8682C25.6047 34.8682 25.191 34.4749 25.191 33.9918C25.191 33.5086 25.6048 33.1153 26.113 33.1153C26.6212 33.1153 27.035 33.5086 27.035 33.9918C27.0351 34.4749 26.6216 34.8682 26.113 34.8682Z" stroke="black" mask="url(#path-2-outside-1_344_188)"/>
<path d="M38.7143 27.7666C38.7143 22.5199 42.8716 18.2667 48 18.2667C53.1284 18.2667 57.2857 22.5199 57.2857 27.7666V42.3333H58.5238V27.7666C58.5238 21.8204 53.8121 17 48 17C42.1879 17 37.4762 21.8204 37.4762 27.7666V42.3333H38.7143V27.7666Z" fill="black"/>
<path d="M56.6667 42.9666H51.7143V39.4047C54.0094 38.049 55.425 35.5448 55.4286 32.8333V29.6666H56.0476V28.4H54.2667C53.4083 28.3988 52.6619 27.7969 52.4605 26.9433L51.072 21.8956C50.9969 21.6225 50.7534 21.4336 50.4762 21.4333C50.1995 21.4333 49.9564 21.6211 49.8806 21.8931L48.6047 26.4811C48.3294 27.6081 47.3401 28.3989 46.2048 28.4H39.9524V29.6667H40.5714V32.8334C40.575 35.5448 41.9906 38.0491 44.2857 39.4048V42.9667H39.3333C36.9412 42.9695 35.0028 44.9527 35 47.4V54.3667C35 54.7164 35.2772 55 35.619 55H60.381C60.7228 55 61 54.7164 61 54.3667V47.4C60.9972 44.9527 59.0588 42.9694 56.6667 42.9666ZM41.8095 32.8333V29.6666H46.2048C47.903 29.6709 49.3862 28.4927 49.8032 26.8085L50.4756 24.3922L51.266 27.2677C51.6029 28.648 52.8001 29.6276 54.1905 29.6605V32.8334C54.1905 36.3311 51.4188 39.1667 48 39.1667C44.5811 39.1667 41.8095 36.331 41.8095 32.8333ZM48 40.4333C48.844 40.4316 49.6817 40.2815 50.4762 39.99V43.3379L48 45.8712L45.5238 43.3379V39.99C46.3183 40.2815 47.156 40.4316 48 40.4333ZM59.7619 53.7333H36.2381V47.3999C36.24 45.6518 37.6246 44.2352 39.3333 44.2333H44.6486L47.5626 47.2145C47.8044 47.4616 48.1962 47.4616 48.4378 47.2145L51.3515 44.2333H56.6667C58.3754 44.2353 59.7601 45.6518 59.762 47.3999L59.7619 53.7333Z" fill="black"/>
<path d="M44.9048 31.0918C44.3065 31.0918 43.8215 31.588 43.8215 32.2001C43.8215 32.8122 44.3065 33.3084 44.9048 33.3084C45.5031 33.3084 45.9881 32.8122 45.9881 32.2001C45.9875 31.5883 45.5028 31.0923 44.9048 31.0918ZM44.75 32.2001C44.75 32.1128 44.8194 32.0418 44.9048 32.0418C44.9902 32.0418 45.0595 32.1128 45.0595 32.2001C45.0595 32.3743 44.75 32.3743 44.75 32.2001Z" fill="black"/>
<path d="M51.0953 33.3081C51.6936 33.3081 52.1786 32.8119 52.1786 32.1998C52.1786 31.5877 51.6936 31.0915 51.0953 31.0915C50.497 31.0915 50.012 31.5877 50.012 32.1998C50.0125 32.8117 50.4973 33.3076 51.0953 33.3081ZM51.0953 32.0415C51.1807 32.0415 51.25 32.1124 51.25 32.1998C51.25 32.374 50.9405 32.374 50.9405 32.1998C50.9405 32.1124 51.0099 32.0415 51.0953 32.0415Z" fill="black"/>
<path d="M50.3212 35.3666H49.3927C49.3927 36.1538 48.7692 36.7917 47.9998 36.7917C47.2304 36.7917 46.6069 36.1538 46.6069 35.3666H45.6783C45.6783 36.6782 46.7177 37.7416 47.9997 37.7416C49.2817 37.7416 50.3212 36.6782 50.3212 35.3666Z" fill="black"/>
</svg>
