<svg width="72" height="72" viewBox="0 0 72 72" fill="none" xmlns="http://www.w3.org/2000/svg">
<rect width="72" height="72" rx="36" fill="white"/>
<path d="M34.1298 28.1206H33.9968C32.808 28.1206 31.7089 27.8058 30.7945 27.1971C29.7389 26.4952 29.0887 25.5314 28.4739 24.6177C28.4624 24.6007 28.4509 24.5837 28.4394 24.5667C28.16 24.1531 27.8741 23.7297 27.5523 23.3358C27.063 22.7376 26.4079 22.0926 25.6972 21.598C24.9845 21.1021 24.2273 20.7654 23.5314 20.7654H23.4862H23.4856V20.6654L34.1298 28.1206ZM34.1298 28.1206L34.1293 28.119M34.1298 28.1206L34.1293 28.119M34.1293 28.119C34.2641 28.1162 34.3984 28.1096 34.531 28.103L34.5323 28.103L34.5323 28.103L34.5352 28.1028C35.4858 28.0281 36.4511 27.7563 37.3323 27.3219C38.1532 28.3962 38.8894 29.5683 39.4954 30.7896C39.6271 31.0549 39.9535 31.1719 40.2307 31.0542C40.5087 30.9362 40.642 30.6201 40.5072 30.3481C40.4708 30.2746 40.4339 30.2013 40.3966 30.1282C40.4246 30.0927 40.4484 30.0535 40.4672 30.0113C40.6955 30.0348 40.925 30.0466 41.1536 30.0466M34.1293 28.119L48.7462 20.9668M41.1536 30.0466C41.1536 30.0466 41.1535 30.0466 41.1535 30.0466V29.9473M41.1536 30.0466L41.1579 29.9466C41.1565 29.9466 41.155 29.9466 41.1536 29.9466L41.1535 29.9473M41.1536 30.0466C41.8219 30.0466 42.4851 29.9467 43.0997 29.7432M41.1535 29.9473L41.1449 30.0462L41.1448 30.0462L41.1492 29.9466C41.1506 29.9466 41.1521 29.9466 41.1535 29.9466V29.9473ZM43.0997 29.7432C44.1857 29.3895 45.0567 28.7508 45.6075 27.8886C46.1534 27.0341 46.3065 26.122 46.4517 25.2571L46.4543 25.2413L46.4544 25.2412C46.5215 24.838 46.591 24.4254 46.6963 24.025M43.0997 29.7432C43.0998 29.7432 43.0999 29.7432 43.1 29.7432L43.0686 29.6484L43.0995 29.7433C43.0996 29.7433 43.0996 29.7433 43.0997 29.7432ZM46.6963 24.025C46.8514 23.4415 47.1118 22.7729 47.4622 22.2008C47.8139 21.6265 48.2484 21.1623 48.7462 20.9668M46.6963 24.025C46.6963 24.025 46.6964 24.0249 46.6964 24.0248L46.5997 23.9993M46.6963 24.025L46.5997 23.9993M48.7462 20.9668C48.7462 20.9668 48.7461 20.9668 48.7461 20.9668L48.7098 20.8736C47.6547 21.2879 46.9138 22.8174 46.5997 23.9993M48.7462 20.9668L45.5232 27.8348C46.0581 26.9975 46.2083 26.1027 46.3543 25.2335L46.3543 25.2334L46.3557 25.2247C46.4228 24.822 46.4929 24.4049 46.5997 23.9993M47.0515 20.9144C47.0207 20.9494 46.9902 20.9849 46.9602 21.021L47.0515 20.9144ZM47.0515 20.9144C47.0993 20.9112 47.1469 20.9083 47.1943 20.9055L47.0515 20.9144ZM48.5522 19.9132L48.5522 19.9133C48.8146 19.9237 49.0463 20.1107 49.0919 20.3665C49.1372 20.6213 48.9899 20.8719 48.7464 20.9667L48.5522 19.9132ZM48.5522 19.9132H48.5482M48.5522 19.9132H48.5482M48.5482 19.9132H48.5466H48.5482ZM40.8005 29.0669C40.8135 29.0342 40.8266 29.0017 40.8399 28.9692C40.8048 28.9671 40.7697 28.9648 40.7348 28.9621C40.7217 28.9944 40.7087 29.0268 40.6959 29.0592C40.7307 29.0621 40.7655 29.0646 40.8005 29.0669ZM39.9363 28.5157C39.9119 28.4866 39.8881 28.4575 39.8646 28.4283C39.8498 28.4631 39.8352 28.498 39.8208 28.533C39.8445 28.5619 39.8687 28.5908 39.8933 28.6196C39.9075 28.5849 39.9218 28.5503 39.9363 28.5157ZM37.3457 21.8288C37.9711 22.9664 38.0312 24.3307 37.5097 25.8023C35.97 23.9874 34.2045 22.4971 32.4382 21.5783C32.1676 21.4375 31.8329 21.5457 31.6953 21.8099C31.5554 22.0788 31.6745 22.3965 31.9397 22.5354C33.5656 23.3868 35.2005 24.7688 36.6362 26.4581C35.0366 27.1876 33.0183 27.3733 31.4326 26.3179C30.5611 25.7367 30.0071 24.9194 29.4109 24.0336L29.4108 24.0333L29.4006 24.0183C29.1022 23.5773 28.7917 23.1185 28.4298 22.6735L28.4297 22.6733C27.6136 21.6734 26.4524 20.6293 25.2096 20.0812C27.7852 19.1823 31.0011 18.6366 33.4843 19.1784C35.1972 19.5559 36.6396 20.5495 37.3457 21.8288ZM38.8453 23.3239C38.8505 23.3742 38.855 23.4247 38.8588 23.4754C38.8882 23.4342 38.9181 23.3933 38.9487 23.3526C38.9441 23.3046 38.9388 23.2567 38.9329 23.209C38.9032 23.247 38.874 23.2853 38.8453 23.3239ZM36.3638 19.2468C36.3637 19.2468 36.3637 19.2467 36.3637 19.2467L36.3636 19.2467L36.3082 19.3299L36.3638 19.2468ZM40.224 21.9853C40.2239 21.9853 40.2238 21.9854 40.2238 21.9854L40.2814 22.0671L40.224 21.9853ZM45.3514 25.0751L45.4501 25.0915L45.3514 25.0751ZM38.9847 25.8986C38.9847 25.8985 38.9847 25.8984 38.9847 25.8983L38.885 25.891L38.9847 25.8986C38.9847 25.8986 38.9847 25.8986 38.9847 25.8986ZM44.2578 20.4391L44.2359 20.3415C44.2359 20.3415 44.2358 20.3415 44.2358 20.3415C44.2358 20.3415 44.2357 20.3415 44.2357 20.3415L44.2578 20.4391Z" fill="black" stroke="black" stroke-width="0.2"/>
<path d="M25.2732 49.5553H46.7275C47.1191 49.5553 47.4358 49.2339 47.4358 48.8365C47.4358 48.4391 47.1191 48.1177 46.7275 48.1177L25.2732 48.1175C24.8816 48.1175 24.5649 48.4389 24.5649 48.8363C24.5649 49.2337 24.8818 49.5553 25.2732 49.5553Z" fill="black"/>
<path d="M52.2917 52.5624H19.7083C19.3167 52.5624 19 52.8838 19 53.2812C19 53.6786 19.317 54 19.7083 54H52.2917C52.6833 54 53 53.6786 53 53.2812C53 52.8841 52.683 52.5624 52.2917 52.5624Z" fill="black"/>
<path d="M23.6269 42.6889C23.4436 42.6889 23.2902 42.7533 23.1666 42.8824C23.0444 43.0128 22.9833 43.1698 22.9833 43.357C22.9833 43.5431 23.0446 43.6988 23.1666 43.8241C23.2902 43.948 23.4436 44.0102 23.6269 44.0102H28.3616C28.5449 44.0102 28.7007 43.948 28.8292 43.8241C28.9564 43.6988 29.0199 43.5431 29.0199 43.357C29.0199 43.1697 28.9564 43.0128 28.8292 42.8824C28.7007 42.7533 28.5449 42.6889 28.3616 42.6889H26.8439V33.9026C26.8439 33.695 26.7728 33.5193 26.6295 33.3736C26.4875 33.2279 26.3128 33.156 26.1095 33.156H25.7878C25.6445 33.156 25.501 33.1926 25.3589 33.2648L23.2738 34.3684C23.0083 34.5038 22.8761 34.7165 22.8761 35.0063C22.8761 35.2039 22.9371 35.3646 23.0594 35.4884C23.1829 35.6125 23.3413 35.6757 23.5345 35.6757C23.6269 35.6757 23.744 35.6441 23.8875 35.5819L25.4498 34.805V42.6894L23.6269 42.6889Z" fill="black"/>
<path d="M39.5012 38.5823C39.5012 35.5634 38.3116 33 35.3488 33C32.3548 33 31.1964 35.5812 31.1964 38.5823C31.1964 41.5862 32.3586 44.1659 35.3488 44.1659C38.3082 44.1659 39.5012 41.6095 39.5012 38.5823ZM32.5917 38.5823C32.5917 36.4545 33.2605 34.3226 35.3488 34.3226C37.4418 34.3226 38.1071 36.4597 38.1071 38.5823C38.1071 40.7007 37.4551 42.8597 35.3488 42.8597C33.2474 42.8599 32.5917 40.707 32.5917 38.5823Z" fill="black"/>
<path d="M49.1238 38.5823C49.1238 35.5634 47.9345 33 44.9715 33C41.9775 33 40.8191 35.5812 40.8191 38.5823C40.8191 41.5862 41.9815 44.1659 44.9715 44.1659C47.9311 44.1659 49.1238 41.6095 49.1238 38.5823ZM44.9715 42.8599C42.8703 42.8599 42.2144 40.707 42.2144 38.5826C42.2144 36.4547 42.8831 34.3228 44.9715 34.3228C47.0645 34.3228 47.7297 36.46 47.7297 38.5826C47.7297 40.7009 47.078 42.8599 44.9715 42.8599Z" fill="black"/>
</svg>
