<svg width="35" height="35" viewBox="0 0 35 35" fill="none" xmlns="http://www.w3.org/2000/svg">
<g id="Twitter">
<path id="Oval 10 Copy" opacity="0.1" d="M34.25 17.5C34.25 26.7508 26.7508 34.25 17.5 34.25C8.24923 34.25 0.75 26.7508 0.75 17.5C0.75 8.24923 8.24923 0.75 17.5 0.75C26.7508 0.75 34.25 8.24923 34.25 17.5Z" stroke="white" stroke-width="1.5"/>
<path id="instagram icon" d="M22.9727 14.5182C22.9818 14.8455 22.9886 15.1364 22.9932 15.3909C22.9977 15.6455 23 16.1818 23 17C23 17.8182 22.9977 18.3545 22.9932 18.6091C22.9886 18.8636 22.9818 19.15 22.9727 19.4682C22.9545 19.7955 22.9205 20.0727 22.8705 20.3C22.8205 20.5273 22.7591 20.7364 22.6864 20.9273C22.6136 21.1273 22.5227 21.3136 22.4136 21.4864C22.3045 21.6591 22.1636 21.8273 21.9909 21.9909C21.8273 22.1636 21.6591 22.3045 21.4864 22.4136C21.3136 22.5227 21.1273 22.6136 20.9273 22.6864C20.7364 22.7591 20.5273 22.8205 20.3 22.8705C20.0727 22.9205 19.8 22.9545 19.4818 22.9727C19.1545 22.9818 18.8636 22.9886 18.6091 22.9932C18.3545 22.9977 17.8182 23 17 23C16.1818 23 15.6455 22.9977 15.3909 22.9932C15.1364 22.9886 14.85 22.9818 14.5318 22.9727C14.2045 22.9545 13.9273 22.9205 13.7 22.8705C13.4727 22.8205 13.2636 22.7591 13.0727 22.6864C12.8727 22.6136 12.6864 22.5227 12.5136 22.4136C12.3409 22.3045 12.1727 22.1636 12.0091 21.9909C11.8364 21.8273 11.6955 21.6591 11.5864 21.4864C11.4773 21.3136 11.3864 21.1273 11.3136 20.9273C11.2409 20.7364 11.1795 20.5273 11.1295 20.3C11.0795 20.0727 11.0455 19.8 11.0273 19.4818C11.0182 19.1545 11.0114 18.8636 11.0068 18.6091C11.0023 18.3545 11 17.8182 11 17C11 16.1818 11.0023 15.6455 11.0068 15.3909C11.0114 15.1364 11.0182 14.85 11.0273 14.5318C11.0455 14.2045 11.0795 13.9273 11.1295 13.7C11.1795 13.4727 11.2409 13.2636 11.3136 13.0727C11.3864 12.8727 11.4773 12.6864 11.5864 12.5136C11.6955 12.3409 11.8364 12.1727 12.0091 12.0091C12.1727 11.8364 12.3409 11.6955 12.5136 11.5864C12.6864 11.4773 12.8727 11.3864 13.0727 11.3136C13.2636 11.2409 13.4727 11.1795 13.7 11.1295C13.9273 11.0795 14.2 11.0455 14.5182 11.0273C14.8455 11.0182 15.1364 11.0114 15.3909 11.0068C15.6455 11.0023 16.1818 11 17 11C17.8182 11 18.3545 11.0023 18.6091 11.0068C18.8636 11.0114 19.15 11.0182 19.4682 11.0273C19.7955 11.0455 20.0727 11.0795 20.3 11.1295C20.5273 11.1795 20.7364 11.2409 20.9273 11.3136C21.1273 11.3864 21.3136 11.4773 21.4864 11.5864C21.6591 11.6955 21.8273 11.8364 21.9909 12.0091C22.1636 12.1727 22.3045 12.3409 22.4136 12.5136C22.5227 12.6864 22.6136 12.8727 22.6864 13.0727C22.7591 13.2636 22.8205 13.4727 22.8705 13.7C22.9205 13.9273 22.9545 14.2 22.9727 14.5182ZM21.8818 19.4273C21.9 19.1091 21.9114 18.825 21.9159 18.575C21.9205 18.325 21.9227 17.8 21.9227 17C21.9227 16.2 21.9205 15.675 21.9159 15.425C21.9114 15.175 21.9 14.8909 21.8818 14.5727C21.8727 14.2818 21.8477 14.05 21.8068 13.8773C21.7659 13.7045 21.7227 13.5636 21.6773 13.4545C21.6227 13.3182 21.5614 13.1955 21.4932 13.0864C21.425 12.9773 21.3364 12.8727 21.2273 12.7727C21.1273 12.6636 21.0227 12.575 20.9136 12.5068C20.8045 12.4386 20.6818 12.3773 20.5455 12.3227C20.4364 12.2773 20.2955 12.2341 20.1227 12.1932C19.95 12.1523 19.7182 12.1273 19.4273 12.1182C19.1091 12.1 18.825 12.0886 18.575 12.0841C18.325 12.0795 17.8 12.0773 17 12.0773C16.2 12.0773 15.675 12.0795 15.425 12.0841C15.175 12.0886 14.8909 12.1 14.5727 12.1182C14.2818 12.1273 14.05 12.1523 13.8773 12.1932C13.7045 12.2341 13.5636 12.2773 13.4545 12.3227C13.3182 12.3773 13.1955 12.4386 13.0864 12.5068C12.9773 12.575 12.8727 12.6636 12.7727 12.7727C12.6636 12.8727 12.575 12.9773 12.5068 13.0864C12.4386 13.1955 12.3773 13.3182 12.3227 13.4545C12.2773 13.5636 12.2341 13.7045 12.1932 13.8773C12.1523 14.05 12.1273 14.2818 12.1182 14.5727C12.1 14.8909 12.0886 15.175 12.0841 15.425C12.0795 15.675 12.0773 16.2 12.0773 17C12.0773 17.8 12.0795 18.325 12.0841 18.575C12.0886 18.825 12.1 19.1091 12.1182 19.4273C12.1273 19.7182 12.1523 19.95 12.1932 20.1227C12.2341 20.2955 12.2773 20.4364 12.3227 20.5455C12.3773 20.6818 12.4386 20.8045 12.5068 20.9136C12.575 21.0227 12.6636 21.1273 12.7727 21.2273C12.8727 21.3364 12.9773 21.425 13.0864 21.4932C13.1955 21.5614 13.3182 21.6227 13.4545 21.6773C13.5636 21.7227 13.7045 21.7659 13.8773 21.8068C14.05 21.8477 14.2818 21.8727 14.5727 21.8818C14.8909 21.9 15.175 21.9114 15.425 21.9159C15.675 21.9205 16.2 21.9227 17 21.9227C17.8 21.9227 18.325 21.9205 18.575 21.9159C18.825 21.9114 19.1091 21.9 19.4273 21.8818C19.7182 21.8727 19.95 21.8477 20.1227 21.8068C20.2955 21.7659 20.4364 21.7227 20.5455 21.6773C20.6818 21.6227 20.8045 21.5614 20.9136 21.4932C21.0227 21.425 21.1273 21.3364 21.2273 21.2273C21.3364 21.1273 21.425 21.0227 21.4932 20.9136C21.5614 20.8045 21.6227 20.6818 21.6773 20.5455C21.7227 20.4364 21.7659 20.2955 21.8068 20.1227C21.8477 19.95 21.8727 19.7182 21.8818 19.4273ZM17 13.9182C17.4273 13.9182 17.8273 14 18.2 14.1636C18.5727 14.3182 18.9 14.5364 19.1818 14.8182C19.4636 15.1 19.6818 15.4273 19.8364 15.8C20 16.1727 20.0818 16.5727 20.0818 17C20.0818 17.4273 20 17.8273 19.8364 18.2C19.6818 18.5727 19.4636 18.9 19.1818 19.1818C18.9 19.4636 18.5727 19.6818 18.2 19.8364C17.8273 20 17.4273 20.0818 17 20.0818C16.5727 20.0818 16.1727 20 15.8 19.8364C15.4273 19.6818 15.1 19.4636 14.8182 19.1818C14.5364 18.9 14.3182 18.5727 14.1636 18.2C14 17.8273 13.9182 17.4273 13.9182 17C13.9182 16.5727 14 16.1727 14.1636 15.8C14.3182 15.4273 14.5364 15.1 14.8182 14.8182C15.1 14.5364 15.4273 14.3182 15.8 14.1636C16.1727 14 16.5727 13.9182 17 13.9182ZM17 19.0045C17.5545 19.0045 18.0273 18.8091 18.4182 18.4182C18.8091 18.0273 19.0045 17.5545 19.0045 17C19.0045 16.4455 18.8091 15.9727 18.4182 15.5818C18.0273 15.1909 17.5545 14.9955 17 14.9955C16.4455 14.9955 15.9727 15.1909 15.5818 15.5818C15.1909 15.9727 14.9955 16.4455 14.9955 17C14.9955 17.5545 15.1909 18.0273 15.5818 18.4182C15.9727 18.8091 16.4455 19.0045 17 19.0045ZM20.9 13.6318C20.9455 13.8227 20.9159 14.0023 20.8114 14.1705C20.7068 14.3386 20.5591 14.4455 20.3682 14.4909C20.1773 14.5364 19.9977 14.5068 19.8295 14.4023C19.6614 14.2977 19.5545 14.15 19.5091 13.9591C19.4636 13.7682 19.4932 13.5886 19.5977 13.4205C19.7023 13.2523 19.85 13.1455 20.0409 13.1C20.2318 13.0455 20.4114 13.0727 20.5795 13.1818C20.7477 13.2909 20.8545 13.4409 20.9 13.6318Z" fill="white"/>
</g>
</svg>
