<svg width="35" height="35" viewBox="0 0 35 35" fill="none" xmlns="http://www.w3.org/2000/svg">
<path opacity="0.1" d="M34.25 17.5C34.25 26.7508 26.7508 34.25 17.5 34.25C8.24923 34.25 0.75 26.7508 0.75 17.5C0.75 8.24923 8.24923 0.75 17.5 0.75C26.7508 0.75 34.25 8.24923 34.25 17.5Z" stroke="white" stroke-width="1.5"/>
<path d="M13.4835 13.9671C14.3029 13.9671 14.9671 13.3029 14.9671 12.4835C14.9671 11.6642 14.3029 11 13.4835 11C12.6642 11 12 11.6642 12 12.4835C12 13.3029 12.6642 13.9671 13.4835 13.9671Z" fill="white"/>
<path d="M14.7198 14.958H12.2473C12.1108 14.958 12 15.0688 12 15.2053V22.623C12 22.7595 12.1108 22.8703 12.2473 22.8703H14.7198C14.8563 22.8703 14.9671 22.7595 14.9671 22.623V15.2053C14.9671 15.0688 14.8563 14.958 14.7198 14.958Z" fill="white"/>
<path d="M22.0876 14.5464C21.0308 14.1844 19.7089 14.5024 18.9162 15.0726C18.889 14.9662 18.7921 14.8871 18.6769 14.8871H16.2043C16.0678 14.8871 15.957 14.9979 15.957 15.1344V22.5521C15.957 22.6886 16.0678 22.7994 16.2043 22.7994H18.6769C18.8134 22.7994 18.9241 22.6886 18.9241 22.5521V17.2212C19.3237 16.8771 19.8385 16.7673 20.2598 16.9463C20.6683 17.1189 20.9022 17.5402 20.9022 18.1015V22.5521C20.9022 22.6886 21.013 22.7994 21.1495 22.7994H23.622C23.7585 22.7994 23.8693 22.6886 23.8693 22.5521V17.6035C23.8411 15.5715 22.8852 14.8194 22.0876 14.5464Z" fill="white"/>
</svg>
